<svg xmlns="http://www.w3.org/2000/svg" viewBox="0 0 720 180" role="img" aria-labelledby="title desc">
  <title id="title">ScholarSync</title>
  <desc id="desc">ScholarSync logo with the tagline Read. Ask. Cite.</desc>
  <defs>
    <linearGradient id="wordGrad" x1="0" y1="0" x2="1" y2="0"><stop offset="0%" stop-color="#1F55F5"/><stop offset="100%" stop-color="#6D32E6"/></linearGradient>
    <linearGradient id="markGrad" x1="0" y1="0" x2="1" y2="1"><stop offset="0%" stop-color="#123C8C"/><stop offset="55%" stop-color="#2457E6"/><stop offset="100%" stop-color="#6C39E8"/></linearGradient>
    <linearGradient id="linkGrad" x1="0" y1="0" x2="1" y2="1"><stop offset="0%" stop-color="#19C5C0"/><stop offset="100%" stop-color="#275BFF"/></linearGradient>
  </defs>
  <g transform="translate(8 18) scale(1.05)">
    <path d="M18 28c14-8 27-7 39 2v76c-12-9-25-10-39-3V28Z" fill="#0B2B66"/>
    <path d="M26 25c13-4 24-2 34 6v72c-10-7-21-9-34-5V25Z" fill="#FFFFFF" stroke="#123C8C" stroke-width="3" stroke-linejoin="round"/>
    <path d="M34 45h18M34 56h18M34 67h14" stroke="#8AA0C7" stroke-width="4" stroke-linecap="round"/>
    <path d="M37 82c-4 0-7 3-7 7 0 5 4 8 9 8v-5c-2 0-4-1-4-3 0-1 1-2 3-2h3v-5h-4Zm16 0c-4 0-7 3-7 7 0 5 4 8 9 8v-5c-2 0-4-1-4-3 0-1 1-2 3-2h3v-5h-4Z" fill="#5A47EB"/>
    <path d="M57 30c15-9 36-7 48 5 11 11 12 29 5 42-4 8-10 13-18 17l-8 12-5-9c-9 2-17 0-23-4V30Z" fill="url(#markGrad)"/>
    <circle cx="93" cy="44" r="7" fill="#20C8C2"/>
    <circle cx="80" cy="68" r="6" fill="#6335E8"/>
    <circle cx="98" cy="88" r="7" fill="#2D7BFF"/>
    <path d="M81 68c6-3 8-8 8-13 0-5 1-8 4-11M81 68c4 7 8 14 17 20" stroke="url(#linkGrad)" stroke-width="6" fill="none" stroke-linecap="round"/>
  </g>
  <text x="155" y="93" font-family="Arial, Helvetica, sans-serif" font-size="68" font-weight="800" letter-spacing="-2" fill="#0C2C68">Scholar</text>
  <text x="416" y="93" font-family="Arial, Helvetica, sans-serif" font-size="68" font-weight="800" letter-spacing="-2" fill="url(#wordGrad)">Sync</text>
  <text x="158" y="132" font-family="Arial, Helvetica, sans-serif" font-size="25" font-weight="600" letter-spacing="4" fill="#19366F">Read.</text>
  <circle cx="248" cy="124" r="4.5" fill="#1BC4C0"/>
  <text x="264" y="132" font-family="Arial, Helvetica, sans-serif" font-size="25" font-weight="600" letter-spacing="4" fill="#19366F">Ask.</text>
  <circle cx="337" cy="124" r="4.5" fill="#2D7BFF"/>
  <text x="353" y="132" font-family="Arial, Helvetica, sans-serif" font-size="25" font-weight="600" letter-spacing="4" fill="#19366F">Cite.</text>
  <circle cx="443" cy="124" r="4.5" fill="#6D32E6"/>
</svg>